#!OML:ASF E:/inclinewalkrobotboard/Project1/Captureday1/Session1/subject1.ASF
:FULLY-SPECIFIED
:DEGREES
188
root 0 0 0 1.3591007041343826 -3.5164454405913004 1.791736992440757
lowerback 11.912994406793922 0.8933473704493927 -0.0762314633222465
upperback -4.364294835363865 1.1232115375168152 -0.5868845161649587
thorax -11.447056909756634 0.5161169474447628 -0.835304783006444
lowerneck -6.689630494044123 1.616266493851649 4.40460727795076
upperneck 18.59234215504969 3.092542855688987 -7.885809149864095
head 6.922296399549475 1.1384618511637141 -3.0367724218293133
rclavicle 6.992409731065756E-16 -1.1955187170660113E-15
rhumerus 19.11413637798706 13.724529397848663 -48.50580713951052
rradius 71.56891483138155
rwrist 26.74524115070127
rhand -35.04272166111333 -56.81343786173972
rfingers 7.125020000000025
rthumb -8.17277898942597 -86.7277846495935
lclavicle 6.227589241658653E-16 -1.7914764615296604E-15
lhumerus 20.6701903020106 -12.085842614995117 45.08210288793325
lradius 69.6491737106407
lwrist -22.636268029036337
lhand -44.63558475749894 -70.14963860650303
lfingers 7.1250200000000214
lthumb -17.45790620226276 -40.86786928625298
rfemur -24.639598715888777 -2.091184869885392 17.177078258022906
rtibia 53.799633867689074
rfoot -29.052410468394424 -17.039278488856866
rtoes -18.29874713991127
lfemur -26.357796393095317 2.4580716007743604 -18.024756842855147
ltibia 54.18883973599368
lfoot -31.083832345247927 -3.5142174326939517
ltoes -19.754329687502555
189
root 0 0 0 1.3594877931339044 -3.5160647594049075 1.7917205684167619
lowerback 11.913049372013582 0.8933953609454026 -0.07632726598123327
upperback -4.364468797179088 1.1232513051372708 -0.5869508463397934
thorax -11.447288235287887 0.5161412235027241 -0.8353355605235739
lowerneck -6.691057022570636 1.6164629563408113 4.404343238509428
upperneck 18.59319193161653 3.0927560850560596 -7.885108544253075
head 6.922812219379804 1.1385569621260048 -3.0364842672936985
rclavicle 6.979778037000309E-16 -1.1956086849204808E-15
rhumerus 19.113543844750154 13.723950276764636 -48.506113844037834
rradius 71.56858374218609
rwrist 26.745360012159967
rhand -35.04357320878014 -56.814520584717904
rfingers 7.125020000000025
rthumb -8.1736101644107 -86.72882615760012
lclavicle 6.216347311037025E-16 -1.7914213093330595E-15
lhumerus 20.66997644251239 -12.085324174757003 45.082645670105364
lradius 69.64889987317862
lwrist -22.63616013152
lhand -44.635901619963526 -70.1515916170467
lfingers 7.1250200000000214
lthumb -17.458211353827366 -40.86981884293638
rfemur -24.639559615488906 -2.0911587374564418 17.17706969832411
rtibia 53.79958159849523
rfoot -29.052243365576324 -17.039233780661473
rtoes -18.298729353920077
lfemur -26.358079556794767 2.457924946079884 -18.024783432642888
ltibia 54.18886272840131
lfoot -31.08386447210742 -3.5144261823484286
ltoes -19.753291544200934
190
root 0 0 0 1.3603921013279558 -3.515184757870306 1.7916530229358307
lowerback 11.913133072513329 0.8935030759600859 -0.07651037636493149
upperback -4.364871087852671 1.1233450939095397 -0.587098403746914
thorax -11.447795367942351 0.516195912705685 -0.8354218226512373
lowerneck -6.694192564715133 1.6168568773175538 4.403732332858743
upperneck 18.594954576135866 3.0931653740269294 -7.883497238320794
head 6.923910105698788 1.1387424179679881 -3.035829419837574
rclavicle 7.016016161185812E-16 -1.2014872694792412E-15
rhumerus 19.112166906760127 13.723155456243088 -48.508887886794206
rradius 71.56815135765812
rwrist 26.744057237885322
rhand -35.04741619724817 -56.81854441787468
rfingers 7.125020000000025
rthumb -8.17729259582315 -86.73279906157558
lclavicle 6.438763724832608E-16 -1.801298067092519E-15
lhumerus 20.668755133109656 -12.083560403544066 45.08330831308624
lradius 69.64779754216133
lwrist -22.636059333657514
lhand -44.636080316050574 -70.15601014948078
lfingers 7.1250200000000214
lthumb -17.458428085922247 -40.87474676844005
rfemur -24.639293248626156 -2.091459713387458 17.177694601590428
rtibia 53.800720898469606
rfoot -29.05301074186215 -17.0401613736761
rtoes -18.29904759543381
lfemur -26.36084322147524 2.4569712191340285 -18.025266826236624
ltibia 54.189737227573715
lfoot -31.08514959058663 -3.516502225146341
ltoes -19.746914244954503
191
root 0 0 0 1.3603732510627187 -3.515199977692272 1.7916822380938608
lowerback 11.913180624814078 0.8935040314650057 -0.07653613407381496
upperback -4.364849147979271 1.1233429816553167 -0.5870982610626484
thorax -11.447799969169312 0.5161965877934558 -0.8354065482811268
lowerneck -6.694247807970042 1.616886840455123 4.403750270608715
upperneck 18.595056256803 3.0932102251723217 -7.8835459623717306
head 6.923954217607086 1.1387595462532951 -3.0358433946057293
rclavicle 6.874867151250217E-16 -1.195116364970417E-15
rhumerus 19.111677311666078 13.72201706544994 -48.506664109258594
rradius 71.56751152898623
rwrist 26.745923723560082
rhand -35.04600095932209 -56.817690598024996
rfingers 7.125020000000025
rthumb -8.175984867671971 -86.73198576338041
lclavicle 6.119140319052734E-16 -1.789921993620631E-15
lhumerus 20.669440893243568 -12.083714041101672 45.08430023861257
lradius 69.64810989290822
lwrist -22.635878565317554
lhand -44.63699587609258 -70.15777286233663
lfingers 7.1250200000000214
lthumb -17.4592588626263 -40.87584305828092
rfemur -24.63960582979266 -2.091196948067731 17.17701290508608
rtibia 53.79961676276882
rfoot -29.051923188333028 -17.03929148411422
rtoes -18.298550792825843
lfemur -26.358903376777732 2.4575000693555697 -18.02487303508635
ltibia 54.18892324933648
lfoot -31.08404250630241 -3.514904639758688
ltoes -19.750333811530105
192
root 0 0 0 1.3603961822475812 -3.5151705284021966 1.7916850594879041
lowerback 11.913189797602215 0.8935068822222938 -0.07654677644728652
upperback -4.364856570692218 1.1233448224324538 -0.5871028570784079
thorax -11.44781420904629 0.5161980133915609 -0.8354060900668723
lowerneck -6.694350178466237 1.6169001450630616 4.40373285072255
upperneck 18.595124828614054 3.0932246537671113 -7.883501581732222
head 6.923994006706429 1.1387656894043254 -3.0358249882438813
rclavicle 6.912962864781895E-16 -1.1959796923454365E-15
rhumerus 19.11162424167631 13.722000127528311 -48.506848488655976
rradius 71.56745126485441
rwrist 26.745866775171876
rhand -35.04609717757797 -56.81775578810193
rfingers 7.125020000000025
rthumb -8.17607829736582 -86.73197568088806
lclavicle 6.15110643020867E-16 -1.7912106635348724E-15
lhumerus 20.669444817433344 -12.083821651152315 45.08417768885079
lradius 69.6481140095647
lwrist -22.63588351708919
lhand -44.63691963860352 -70.15749688163524
lfingers 7.1250200000000214
lthumb -17.459191462143117 -40.875666970322385
rfemur -24.639643165184086 -2.0911706319127554 17.176998177075056
rtibia 53.79946842589869
rfoot -29.05190368372299 -17.03927623415844
rtoes -18.29852043732336
lfemur -26.35882861143982 2.4575225828552894 -18.024861600653985
ltibia 54.18875748737371
lfoot -31.08397220347636 -3.514882783646748
ltoes -19.750585503793218
